<svg xmlns="http://www.w3.org/2000/svg" viewBox="0 0 1325 680"><defs><style>.cls-1{fill:#fff;}</style></defs><title>Asset 9</title><g id="Layer_2" data-name="Layer 2"><g id="Layer_1-2" data-name="Layer 1"><rect class="cls-1" y="4" width="34" height="668"/><rect class="cls-1" x="68" y="4" width="34" height="668"/><rect class="cls-1" x="136" y="4" width="34" height="668"/><rect class="cls-1" x="205" y="12" width="34" height="668"/><rect class="cls-1" x="273" y="12" width="34" height="668"/><rect class="cls-1" x="341" y="12" width="34" height="668"/><rect class="cls-1" x="411" y="8" width="34" height="668"/><rect class="cls-1" x="479" y="8" width="34" height="668"/><rect class="cls-1" x="547" y="8" width="34" height="668"/><rect class="cls-1" x="616" y="7" width="34" height="668"/><rect class="cls-1" x="684" y="11" width="34" height="668"/><rect class="cls-1" x="752" y="10" width="34" height="668"/><rect class="cls-1" x="815" width="34" height="668"/><rect class="cls-1" x="883" width="34" height="668"/><rect class="cls-1" x="951" width="34" height="668"/><rect class="cls-1" x="1020" y="8" width="34" height="668"/><rect class="cls-1" x="1088" y="8" width="34" height="668"/><rect class="cls-1" x="1156" y="8" width="34" height="668"/><rect class="cls-1" x="1222" y="3" width="34" height="668"/><rect class="cls-1" x="1291" y="11" width="34" height="668"/></g></g></svg>