<svg xmlns="http://www.w3.org/2000/svg" viewBox="0 0 756 756"><defs><style>.cls-1{fill:#fff;}.cls-2{font-size:97px;fill:#bf4641;stroke:#fff;stroke-miterlimit:10;font-family:ARJULIAN, AR JULIAN;}</style></defs><title>Asset 8</title><g id="Layer_2" data-name="Layer 2"><g id="Layer_1-2" data-name="Layer 1"><circle class="cls-1" cx="378" cy="378" r="378"/><text class="cls-2" transform="matrix(1.11, -0.77, 0.77, 1.11, 220.53, 266.93)">W</text><text class="cls-2" transform="translate(321.02 202.21) rotate(-6.47) scale(1.35)">E</text><text class="cls-2" transform="matrix(1.34, 0.17, -0.17, 1.34, 388.93, 196.58)">’</text><text class="cls-2" transform="translate(411.7 194.36) rotate(23.58) scale(1.35)">V</text><text class="cls-2" transform="translate(485.42 226.35) rotate(46.02) scale(1.35)">E</text><text class="cls-2" transform="translate(531.98 274.29) rotate(64.73) scale(1.35)"> </text><text class="cls-2" transform="matrix(0.19, 1.34, -1.34, 0.19, 556.44, 323.76)"> </text><text class="cls-2" transform="matrix(-0.27, 1.32, -1.32, -0.27, 567.27, 377.52)">G</text><text class="cls-2" transform="translate(554.64 451.06) rotate(125.72) scale(1.35)">O</text><text class="cls-2" transform="translate(507.01 517.89) rotate(148.73) scale(1.35)">T</text><text class="cls-2" transform="translate(447.77 553.89) rotate(167.93) scale(1.35)"> </text><text class="cls-2" transform="matrix(-1.34, -0.12, 0.12, -1.34, 394.02, 566.48)"> </text><text class="cls-2" transform="translate(339.15 564.25) rotate(-155.89) scale(1.35)">B</text><text class="cls-2" transform="translate(275.28 536.89) rotate(-135.04) scale(1.35)">E</text><text class="cls-2" transform="matrix(-0.56, -1.23, 1.23, -0.56, 227.21, 490.87)">E</text><text class="cls-2" transform="matrix(-0.13, -1.34, 1.34, -0.13, 198.95, 430.45)">F</text></g></g></svg>