<svg xmlns="http://www.w3.org/2000/svg" viewBox="0 0 377.77 376.86"><defs><style>.cls-1{fill:#fff;stroke:#000;stroke-miterlimit:10;}</style></defs><title>Asset 1</title><g id="Layer_2" data-name="Layer 2"><g id="Layer_1-2" data-name="Layer 1"><path class="cls-1" d="M126.7,80.22l-2.55-4.41A129.52,129.52,0,0,0,59.38,187.9h5.09A124.43,124.43,0,0,1,126.7,80.22Z"/><path class="cls-1" d="M253.58,75.84,251,80.24A124.41,124.41,0,0,1,313.25,187.9h5.09A129.5,129.5,0,0,0,253.58,75.84Z"/><path class="cls-1" d="M188.86,312.28a123.54,123.54,0,0,1-62.15-16.72L124.15,300a129,129,0,0,0,129.42,0L251,295.56A123.65,123.65,0,0,1,188.86,312.28Z"/><path class="cls-1" d="M245.12,285.31l-2.55-4.41a107,107,0,0,1-107.41,0l-2.54,4.41a112.15,112.15,0,0,0,112.5,0Z"/><path class="cls-1" d="M76.32,187.9h5.1a107.51,107.51,0,0,1,53.74-93l-2.54-4.4A112.59,112.59,0,0,0,76.32,187.9Z"/><path class="cls-1" d="M245.12,90.49l-2.55,4.41a107.49,107.49,0,0,1,53.74,93h5.1A112.6,112.6,0,0,0,245.12,90.49Z"/><path class="cls-1" d="M236.65,270.65l-2.57-4.46a89.78,89.78,0,0,1-90.42,0l-2.57,4.46a95.32,95.32,0,0,0,95.57,0Z"/><path class="cls-1" d="M93.24,187.9h5.09a90.52,90.52,0,0,1,45.32-78.31l-2.57-4.46A95.63,95.63,0,0,0,93.24,187.9Z"/><path class="cls-1" d="M236.65,105.15l-2.57,4.46a90.51,90.51,0,0,1,45.3,78.3h5.09A95.63,95.63,0,0,0,236.65,105.15Z"/><path class="cls-1" d="M110.39,187.9h5.09a73.36,73.36,0,0,1,36.73-63.48l-2.54-4.4A78.44,78.44,0,0,0,110.39,187.9Z"/><path class="cls-1" d="M228.06,120l-2.54,4.4a73.38,73.38,0,0,1,36.72,63.48h5.09A78.47,78.47,0,0,0,228.06,120Z"/><path class="cls-1" d="M228.06,255.78l-2.54-4.41a72.78,72.78,0,0,1-73.31,0l-2.54,4.39a77.83,77.83,0,0,0,78.39,0Z"/><path class="cls-1" d="M219.08,240.22l-2.54-4.4a54.91,54.91,0,0,1-55.34,0l-2.54,4.4a60,60,0,0,0,60.42,0Z"/><path class="cls-1" d="M219.08,135.58l-2.54,4.4a55.41,55.41,0,0,1,27.73,47.92h5.09A60.47,60.47,0,0,0,219.08,135.58Z"/><path class="cls-1" d="M128.36,187.9h5.09A55.4,55.4,0,0,1,161.19,140l-2.53-4.4A60.48,60.48,0,0,0,128.36,187.9Z"/><path class="cls-1" d="M209.69,151.85l-2.54,4.4a36.59,36.59,0,0,1,18.31,31.65h5.09A41.65,41.65,0,0,0,209.69,151.85Z"/><path class="cls-1" d="M209.69,223.95l-2.54-4.41a36.29,36.29,0,0,1-36.55,0L168,224a41.36,41.36,0,0,0,41.64,0Z"/><path class="cls-1" d="M147.18,187.9h5.08a36.58,36.58,0,0,1,18.33-31.66l-2.55-4.4A41.66,41.66,0,0,0,147.18,187.9Z"/><path class="cls-1" d="M165,187.9A23.88,23.88,0,1,0,188.86,164,23.9,23.9,0,0,0,165,187.9Zm42.67,0a18.79,18.79,0,1,1-18.8-18.79A18.81,18.81,0,0,1,207.65,187.9Z"/><path class="cls-1" d="M81.55,80,71,58.78c-.37-.7-.83-1.5-1.35-2.41s-1-1.74-1.54-2.55S67,52,66.35,51l.07-.07c.88.73,1.73,1.43,2.57,2.08s1.51,1.19,2.35,1.83,1.57,1.17,2.27,1.62L93.21,69.6l3.54-3.16L80.36,33.22,76.6,36.57l10,19.21c.43.82.92,1.69,1.5,2.65s1.11,1.83,1.63,2.65L91.62,64l-.07.07-2.73-2.2c-.76-.6-1.59-1.23-2.5-1.89s-1.74-1.23-2.49-1.75L65.7,46.32l-3.86,3.45,9.69,19.47c.4.84.88,1.73,1.44,2.69s1.1,1.86,1.62,2.67l1.87,3-.07.06c-.92-.73-1.79-1.46-2.66-2.19s-1.57-1.25-2.45-1.93-1.67-1.28-2.44-1.8L51,59.47l-3.83,3.42,30.73,20.4Z"/><polygon class="cls-1" points="107.17 59.18 130.09 47.14 128.02 43.19 109.43 52.96 103.82 42.31 120.21 33.69 118.31 30.08 101.92 38.7 96.91 29.14 115.03 19.62 113.02 15.8 90.57 27.6 107.17 59.18"/><path class="cls-1" d="M137.78,33.65l13.53-3.82,6.24,9,5.17-1.46L140.37,6.65l-5.28,1.48L132.26,46l4.84-1.37Zm.9-14.61c.05-.88.07-1.78.08-2.71s0-1.78,0-2.55,0-1.78,0-2.64l.14,0c.41.75.84,1.49,1.29,2.23s.81,1.38,1.3,2.17,1,1.56,1.56,2.31l6,8.68-11,3.1Z"/><path class="cls-1" d="M170.89,36.9l-1.09-14.64,9.57-.7q5.79-.44,8.46-3.45a10.32,10.32,0,0,0,2.3-7.94,10.62,10.62,0,0,0-1-3.83,10.72,10.72,0,0,0-2.09-3,9,9,0,0,0-3.7-2.3,13,13,0,0,0-5.08-.51l-15,1.11,2.64,35.62Zm7-32a7.61,7.61,0,0,1,5.25,1.2,6,6,0,0,1,2.17,4.61,6.3,6.3,0,0,1-1.4,4.84c-1.09,1.23-2.84,1.92-5.26,2.11l-9.1.67-.95-12.73Z"/><path class="cls-1" d="M199.5,31.25a16,16,0,0,0,4.87,4.69,19.36,19.36,0,0,0,14.37,2.16,16,16,0,0,0,6-3,17.17,17.17,0,0,0,4.34-5.31,21.71,21.71,0,0,0,2.31-7.12,21.9,21.9,0,0,0-.11-7.54,17.22,17.22,0,0,0-2.58-6.33,16.42,16.42,0,0,0-4.88-4.67,19.38,19.38,0,0,0-14.37-2.15,16.23,16.23,0,0,0-6,3,16.49,16.49,0,0,0-4.31,5.29,22.23,22.23,0,0,0-2.3,7.17,22.42,22.42,0,0,0,.09,7.49A16.82,16.82,0,0,0,199.5,31.25Zm2.28-13.09a18.93,18.93,0,0,1,1.66-5.52,13.07,13.07,0,0,1,3-4.15,11.35,11.35,0,0,1,4.33-2.41,13.52,13.52,0,0,1,10.58,1.59,11.33,11.33,0,0,1,3.4,3.56,12.83,12.83,0,0,1,1.67,4.86,19.74,19.74,0,0,1-.07,5.76,19.22,19.22,0,0,1-1.63,5.51,12.72,12.72,0,0,1-3,4.13,10.82,10.82,0,0,1-4.31,2.38,12.52,12.52,0,0,1-5.44.28,12.64,12.64,0,0,1-5.13-1.87,11,11,0,0,1-3.4-3.55,12.92,12.92,0,0,1-1.7-4.84A18.82,18.82,0,0,1,201.78,18.16Z"/><path class="cls-1" d="M245.31,23.25c.27-.69.57-1.43.85-2.24s.57-1.59.84-2.3.56-1.7.87-2.54l.08,0c.09,1,.21,1.93.35,2.88s.23,1.72.36,2.64.27,1.76.43,2.55l5.09,26.2,4.71,1.92,13.44-33.07-4.26-1.73L259.84,37.8c-.27.68-.58,1.43-.89,2.27s-.59,1.62-.84,2.36L257.28,45l-.14-.06c-.08-1-.18-1.92-.28-2.86s-.19-1.71-.31-2.63-.26-1.79-.42-2.59L251,10.65l-4.76-1.94L232.81,41.77l4.26,1.73Z"/><path class="cls-1" d="M269,44.66a13.36,13.36,0,0,0-1.75,4.61,11.22,11.22,0,0,0,.2,4.86,13.68,13.68,0,0,0,2.41,4.81,20.25,20.25,0,0,0,4.87,4.48,19.21,19.21,0,0,0,4.8,2.42,12.55,12.55,0,0,0,4.64.7,9.49,9.49,0,0,0,4.14-1.19,11.24,11.24,0,0,0,5.21-7.83,8.88,8.88,0,0,0-.66-4.24,14.87,14.87,0,0,0-2.42-3.94c-1.07-1.26-2.21-2.52-3.43-3.78-1-1-1.81-1.94-2.58-2.82a13.15,13.15,0,0,1-1.79-2.59,5.79,5.79,0,0,1-.66-2.44,4.1,4.1,0,0,1,.8-2.39,4.55,4.55,0,0,1,4-2.18,10.25,10.25,0,0,1,5.47,2,9.87,9.87,0,0,1,4,4.81,7.27,7.27,0,0,1-.53,5.64l3.92,2.67A14.88,14.88,0,0,0,301,44.1a9.89,9.89,0,0,0-.26-4.18,12.15,12.15,0,0,0-2.12-4.08A18.18,18.18,0,0,0,294.36,32a17.75,17.75,0,0,0-4.51-2.29,12,12,0,0,0-4.29-.66,8.57,8.57,0,0,0-3.78,1.05,8.66,8.66,0,0,0-3,2.81,8.8,8.8,0,0,0-1.63,4.05,8.25,8.25,0,0,0,.55,3.77,13.78,13.78,0,0,0,2.09,3.61,43.72,43.72,0,0,0,3.1,3.5c1.1,1.18,2.06,2.26,2.91,3.26a14.89,14.89,0,0,1,2,2.91,5.77,5.77,0,0,1,.66,2.78,5.12,5.12,0,0,1-1,2.79,6,6,0,0,1-2.11,2,5.6,5.6,0,0,1-2.53.69,7.82,7.82,0,0,1-2.81-.46A12.39,12.39,0,0,1,277,60.25q-4-2.75-5-6a8.78,8.78,0,0,1,1-6.87Z"/><path class="cls-1" d="M311.33,99.25a18.07,18.07,0,0,0,5.41,5.06,16.14,16.14,0,0,0,6.4,2.18,17.33,17.33,0,0,0,6.83-.62,23,23,0,0,0,12-8.69,17,17,0,0,0,2.72-6.28,16.49,16.49,0,0,0-.09-6.75,19.33,19.33,0,0,0-8.52-11.77,16.28,16.28,0,0,0-6.38-2.2,16.9,16.9,0,0,0-6.8.63,22.27,22.27,0,0,0-6.72,3.39,21.9,21.9,0,0,0-5.29,5.3,16.89,16.89,0,0,0-2.74,6.27,15.94,15.94,0,0,0,.06,6.76A18.07,18.07,0,0,0,311.33,99.25Zm1.39-12.42A13,13,0,0,1,315,82.22a19.37,19.37,0,0,1,4.13-4,19,19,0,0,1,5.12-2.68,12.89,12.89,0,0,1,5.09-.73,11.26,11.26,0,0,1,4.73,1.4,12.16,12.16,0,0,1,4,3.69,12.31,12.31,0,0,1,2.25,5,11.23,11.23,0,0,1-.16,4.94,12.91,12.91,0,0,1-2.3,4.6,21,21,0,0,1-9.24,6.68,12.78,12.78,0,0,1-5.05.73,11.07,11.07,0,0,1-4.72-1.41,13.8,13.8,0,0,1-6.27-8.67A10.85,10.85,0,0,1,312.72,86.83Z"/><polygon class="cls-1" points="325.81 121.72 340.95 115.15 347.42 130.08 351.23 128.42 344.79 113.5 354.6 109.24 362.36 127.16 366.32 125.46 356.62 103.04 323.86 117.21 325.81 121.72"/><path class="cls-1" d="M339.71,165.48l21.54-1.35c.8-.05,1.72-.12,2.75-.21l3-.29q1.62-.2,3.39-.35v.09l-3,1.05-2.6,1c-.93.35-1.74.66-2.42,1l-22,10.07.24,3.84,23.11,7.27c.71.21,1.56.43,2.51.65l2.71.66,3.08.67v.1c-1.19,0-2.32,0-3.4.07s-2,0-3,.07l-2.76.15-21.55,1.34.29,4.69,35.63-2.22-.41-6.52L357,181.14c-1-.29-2.18-.61-3.47-1s-2.54-.67-3.72-1q-2.05-.48-4.2-1v-.09l4-1.5c1.13-.42,2.32-.9,3.57-1.4s2.35-1,3.32-1.39l18.89-8.62-.39-6.32-35.63,2.22Z"/><path class="cls-1" d="M340.4,203.74l9.63,5.41L347.59,223l-10.89,1.69-.93,5.3,37.45-6.75,1-5.39-32.91-19.05Zm13.18,7.38,9.22,5.19c.76.43,1.57.85,2.41,1.26s1.59.78,2.28,1.13l2.38,1.1V220c-.86,0-1.7.1-2.57.18s-1.59.14-2.53.24-1.85.23-2.74.39l-10.43,1.62Z"/><path class="cls-1" d="M363.28,244a8.73,8.73,0,0,0-3.41-2.34,8.85,8.85,0,0,0-4.31-.71,8.14,8.14,0,0,0-3.56,1.36,13.79,13.79,0,0,0-3.07,2.83,44.93,44.93,0,0,0-2.74,3.79q-1.36,2-2.56,3.55a14.24,14.24,0,0,1-2.41,2.55,5.89,5.89,0,0,1-2.56,1.26,5.34,5.34,0,0,1-3-.37,6.16,6.16,0,0,1-2.4-1.63,6,6,0,0,1-1.22-2.32,8,8,0,0,1-.15-2.85,12.55,12.55,0,0,1,.83-3.19c1.21-3,2.81-5.11,4.78-6.21a8.8,8.8,0,0,1,6.9-.55l1.79-4.5a13.54,13.54,0,0,0-4.89-.7,11.13,11.13,0,0,0-4.7,1.24,13.94,13.94,0,0,0-4.17,3.4,20.3,20.3,0,0,0-3.31,5.72,19.07,19.07,0,0,0-1.32,5.2,12.67,12.67,0,0,0,.32,4.67,9.52,9.52,0,0,0,2.05,3.79,10.09,10.09,0,0,0,3.83,2.58,9.93,9.93,0,0,0,5,.81,9,9,0,0,0,4-1.56,15.14,15.14,0,0,0,3.32-3.21c1-1.31,2-2.7,2.94-4.17.77-1.14,1.5-2.18,2.22-3.13a13,13,0,0,1,2.13-2.3,5.54,5.54,0,0,1,2.25-1.18,4.08,4.08,0,0,1,2.5.26,4.58,4.58,0,0,1,3,3.47,10.12,10.12,0,0,1-.81,5.76,9.75,9.75,0,0,1-3.82,5,7.22,7.22,0,0,1-5.62.71l-1.75,4.41a14.46,14.46,0,0,0,4.38.41,9.91,9.91,0,0,0,4-1.15,12.09,12.09,0,0,0,3.51-3,17.87,17.87,0,0,0,2.86-5,18.26,18.26,0,0,0,1.25-4.89,11.75,11.75,0,0,0-.29-4.33A8.78,8.78,0,0,0,363.28,244Z"/><path class="cls-1" d="M345.33,275.54a8.62,8.62,0,0,0-4.08-1.6,8.22,8.22,0,0,0-3.75.56,13.82,13.82,0,0,0-3.59,2.13,45.62,45.62,0,0,0-3.49,3.13c-1.15,1.1-2.25,2.08-3.23,2.93a15,15,0,0,1-2.89,2,5.83,5.83,0,0,1-2.77.69,5.23,5.23,0,0,1-2.8-1,5.88,5.88,0,0,1-2-2.09,5.7,5.7,0,0,1-.71-2.53,8.17,8.17,0,0,1,.45-2.82,12.58,12.58,0,0,1,1.51-3q2.71-4.06,6-5.06a8.79,8.79,0,0,1,6.87.91l2.7-4a13.77,13.77,0,0,0-4.63-1.72,11.2,11.2,0,0,0-4.87.24,14,14,0,0,0-4.78,2.44,20,20,0,0,0-4.44,4.9,19.27,19.27,0,0,0-2.38,4.81,12.34,12.34,0,0,0-.67,4.64,9.27,9.27,0,0,0,1.21,4.13,11.28,11.28,0,0,0,7.86,5.16,9,9,0,0,0,4.24-.68,14.85,14.85,0,0,0,3.93-2.44q1.88-1.6,3.76-3.46,1.48-1.44,2.8-2.59a12.81,12.81,0,0,1,2.57-1.8,5.7,5.7,0,0,1,2.44-.68,4.11,4.11,0,0,1,2.4.77,4.6,4.6,0,0,1,2.22,4,10.35,10.35,0,0,1-2,5.47,9.83,9.83,0,0,1-4.78,4.07,7.21,7.21,0,0,1-5.64-.5l-2.65,3.95a15,15,0,0,0,4.2,1.31,9.87,9.87,0,0,0,4.18-.28,12.22,12.22,0,0,0,4.07-2.15,20.21,20.21,0,0,0,6.09-8.82,11.71,11.71,0,0,0,.63-4.29,8.5,8.5,0,0,0-3.91-6.79Z"/><path class="cls-1" d="M304.53,313.2a22.23,22.23,0,0,0-5.47-5.17,17.63,17.63,0,0,0-6.25-2.63,15.54,15.54,0,0,0-6.54.14,16.75,16.75,0,0,0-6.36,3.1q-5.53,4.22-6.24,9.54a11.64,11.64,0,0,0-.11,2.7,18.24,18.24,0,0,0,.43,2.78,15.47,15.47,0,0,0,.91,2.66,13,13,0,0,0,1.4,2.34l3.9-3a11.65,11.65,0,0,1-1.53-3.38,9.65,9.65,0,0,1-.3-3.55,9.21,9.21,0,0,1,1.14-3.48,10.87,10.87,0,0,1,2.92-3.18,11.39,11.39,0,0,1,4.51-2.15,10.66,10.66,0,0,1,4.76,0,13.2,13.2,0,0,1,4.65,2.13,19.15,19.15,0,0,1,4.21,4.14,20,20,0,0,1,2.84,5,13.31,13.31,0,0,1,.93,5,10.37,10.37,0,0,1-1.13,4.65,11.39,11.39,0,0,1-3.34,3.92,10.22,10.22,0,0,1-6.45,2.41,8.62,8.62,0,0,1-5.68-2.33l-3.9,3a14.76,14.76,0,0,0,4.08,2.85,11.82,11.82,0,0,0,4.65,1.06,13.9,13.9,0,0,0,4.82-.75,17.26,17.26,0,0,0,5-2.77,16.7,16.7,0,0,0,4.8-5.46,15.53,15.53,0,0,0,1.85-6.36,17.14,17.14,0,0,0-.94-6.72A22.57,22.57,0,0,0,304.53,313.2Z"/><path class="cls-1" d="M269.4,329.85a16.78,16.78,0,0,0-5.56-4,16,16,0,0,0-6.63-1.35,19.46,19.46,0,0,0-13.31,5.86,16,16,0,0,0-3.48,5.8,17.38,17.38,0,0,0-.83,6.82,23.14,23.14,0,0,0,6,13.57,17.11,17.11,0,0,0,5.59,4,16.27,16.27,0,0,0,6.61,1.33A19.37,19.37,0,0,0,271.09,356a16.28,16.28,0,0,0,3.48-5.79,16.64,16.64,0,0,0,.81-6.77,22.29,22.29,0,0,0-1.89-7.29A22,22,0,0,0,269.4,329.85Zm.71,19a11.16,11.16,0,0,1-2.35,4.34,13.54,13.54,0,0,1-9.8,4.31,11.27,11.27,0,0,1-4.79-1.19,12.88,12.88,0,0,1-4-3.21,20,20,0,0,1-3-4.91,19.68,19.68,0,0,1-1.57-5.52,13.08,13.08,0,0,1,.35-5.11,11.27,11.27,0,0,1,2.36-4.33,13.93,13.93,0,0,1,9.79-4.31,11.12,11.12,0,0,1,4.79,1.17,13.29,13.29,0,0,1,4,3.19,18.88,18.88,0,0,1,3,4.87,19.4,19.4,0,0,1,1.56,5.55A13,13,0,0,1,270.11,348.85Z"/><path class="cls-1" d="M225.76,335.84l3.43,21.34c.12.79.28,1.69.48,2.72s.39,2,.58,2.94.46,2.19.68,3.34l-.09,0-1.33-2.85c-.39-.79-.79-1.62-1.22-2.5s-.84-1.66-1.2-2.31l-12.17-21-3.79.61-5,23.72c-.14.74-.28,1.59-.41,2.57s-.26,1.89-.38,2.76l-.38,3.13h-.1c-.12-1.18-.25-2.31-.4-3.38s-.2-2-.36-3-.29-1.94-.41-2.73l-3.42-21.34-4.65.75,5.67,35.28,6.44-1,4.13-20.31c.2-1,.4-2.22.63-3.55s.41-2.6.58-3.79c.2-1.39.41-2.82.63-4.28l.09,0c.63,1.33,1.27,2.62,1.89,3.88q.8,1.63,1.74,3.43l1.71,3.18,10.42,18,6.25-1-5.66-35.28Z"/><path class="cls-1" d="M183.37,361.82c-.09.8-.17,1.71-.25,2.75s-.15,2-.23,3-.12,2.22-.2,3.39h-.1l-.54-3.09c-.16-.84-.34-1.77-.53-2.74s-.37-1.82-.55-2.53l-6.25-23.39-3.81-.41-11,21.56c-.33.67-.69,1.46-1.07,2.36s-.75,1.76-1.09,2.57l-1.18,2.91h-.1c.19-1.17.36-2.3.5-3.37s.31-1.94.43-3,.24-1.95.32-2.74L160,337.64l-4.68-.5-3.76,35.48,6.49.69,9.29-18.5c.46-.94,1-2,1.53-3.26s1.09-2.39,1.56-3.5c.55-1.3,1.12-2.61,1.71-4h.11c.26,1.45.53,2.85.8,4.24.23,1.18.49,2.42.79,3.74s.56,2.48.81,3.51L180,375.64l6.3.67L190,340.83l-4.38-.47Z"/><path class="cls-1" d="M142.12,332.77A22.31,22.31,0,0,0,131.79,329a12.26,12.26,0,0,0-4.85.54,10.23,10.23,0,0,0-4,2.55,13.16,13.16,0,0,0-2.87,4.83l-8.24,22.64,4.6,1.67L124.5,339q1.52-4.15,4.37-5.24a9.61,9.61,0,0,1,6.77.34c2.7,1,4.56,2.38,5.55,4.15s1,4,0,6.82l-8.09,22.25,4.6,1.67,8.24-22.65a13.35,13.35,0,0,0,.92-5.54,9.8,9.8,0,0,0-1.39-4.51A11.93,11.93,0,0,0,142.12,332.77Z"/><path class="cls-1" d="M115.17,321l-11.59,18.55c-.39.62-.8,1.31-1.23,2.06l-1.22,2.13c-.41.79-.85,1.58-1.3,2.35l-.07-.05c.07-1,.14-1.92.17-2.88s.07-1.73.1-2.66,0-1.79,0-2.59l-.52-26.69-4.31-2.69-18.9,30.25,3.89,2.44,11.57-18.51c.4-.63.81-1.32,1.28-2.09s.88-1.49,1.22-2.18L95.51,316l.12.08c-.07,1-.15,1.93-.21,2.86s-.11,1.72-.15,2.65-.05,1.8,0,2.61l.57,26.71,4.35,2.73,18.91-30.27Z"/><polygon class="cls-1" points="86.88 300.53 63.38 327.43 67.06 330.65 90.56 303.76 86.88 300.53"/><path class="cls-1" d="M73.88,303.43a17.77,17.77,0,0,0,2.32-6.37,15.32,15.32,0,0,0-.45-6.53,16.69,16.69,0,0,0-3.4-6.21q-4.48-5.33-9.82-5.79a11.4,11.4,0,0,0-2.71,0,16.4,16.4,0,0,0-2.75.55,14.88,14.88,0,0,0-2.61,1,11.69,11.69,0,0,0-2.28,1.52l3.14,3.74a12,12,0,0,1,3.31-1.68,9.68,9.68,0,0,1,3.54-.46,8.9,8.9,0,0,1,3.52,1A10.68,10.68,0,0,1,69,287a11.42,11.42,0,0,1,2.36,4.41,10.7,10.7,0,0,1,.2,4.75,13,13,0,0,1-1.91,4.74,19.37,19.37,0,0,1-3.94,4.41,20,20,0,0,1-4.89,3.08,13.66,13.66,0,0,1-5,1.17,10.73,10.73,0,0,1-4.69-.92,11.22,11.22,0,0,1-4.07-3.15,10.23,10.23,0,0,1-2.73-6.34,8.67,8.67,0,0,1,2.07-5.78l-3.14-3.74a14.31,14.31,0,0,0-2.65,4.2,11.53,11.53,0,0,0-.85,4.69,13.45,13.45,0,0,0,1,4.78,17.21,17.21,0,0,0,3,4.86,16.71,16.71,0,0,0,5.69,4.53,15.67,15.67,0,0,0,6.44,1.55A17.28,17.28,0,0,0,62.59,313a22.59,22.59,0,0,0,6.36-3.86A22.2,22.2,0,0,0,73.88,303.43Z"/><path class="cls-1" d="M59.54,268.38,48.61,270l-6.55-12.45,7.57-8-2.5-4.76L21.64,273.1l2.55,4.83,37.7-5.08Zm-25.41,3.78c-.88.13-1.76.29-2.68.49l-2.5.51-2.57.58-.07-.12c.65-.55,1.29-1.14,1.93-1.72s1.18-1.09,1.85-1.74,1.32-1.3,1.93-2l7.24-7.68,5.32,10.12Z"/><polygon class="cls-1" points="45.01 236.78 43.5 232.09 13.63 241.68 10.03 230.49 5.91 231.81 14.61 258.85 18.71 257.52 15.13 246.38 45.01 236.78"/><rect class="cls-1" x="3.86" y="215.09" width="35.71" height="4.9" transform="translate(-37.8 7.18) rotate(-10.1)"/><path class="cls-1" d="M11.88,206.38a22.05,22.05,0,0,0,7.45,1.1,21.65,21.65,0,0,0,7.37-1.29,16.79,16.79,0,0,0,5.85-3.55,16.06,16.06,0,0,0,3.86-5.56,19.41,19.41,0,0,0-.19-14.54,16.22,16.22,0,0,0-4-5.47,17.41,17.41,0,0,0-5.94-3.42,21.64,21.64,0,0,0-7.41-1.12,21.78,21.78,0,0,0-7.42,1.31,17.08,17.08,0,0,0-5.83,3.58A16.22,16.22,0,0,0,1.82,183,17.85,17.85,0,0,0,.5,190.26,18.09,18.09,0,0,0,2,197.51,16.35,16.35,0,0,0,6,203,16.81,16.81,0,0,0,11.88,206.38ZM4.72,190.21a12.24,12.24,0,0,1,1-5.37,11.25,11.25,0,0,1,3-3.94,12.86,12.86,0,0,1,4.52-2.43,20,20,0,0,1,5.7-.87,19.69,19.69,0,0,1,5.71.72,12.89,12.89,0,0,1,4.55,2.32,10.68,10.68,0,0,1,3,3.87,12.52,12.52,0,0,1,1.15,5.33,12.81,12.81,0,0,1-1,5.37,10.91,10.91,0,0,1-3,3.94,12.86,12.86,0,0,1-4.5,2.46,19.18,19.18,0,0,1-5.68.88,19.26,19.26,0,0,1-5.72-.73A13.18,13.18,0,0,1,9,199.41a11.15,11.15,0,0,1-3.08-3.87A12.27,12.27,0,0,1,4.72,190.21Z"/><path class="cls-1" d="M38.58,163.4l-21.32-4.85c-.72-.16-1.51-.32-2.35-.49l-2.41-.45c-.89-.13-1.77-.29-2.65-.46l0-.1c.93-.24,1.87-.5,2.78-.79l2.54-.77c.88-.29,1.7-.57,2.45-.86l25-9.26,1.13-5L9,132.52,8,137l21.29,4.85,2.38.51c.89.18,1.7.33,2.46.44l2.67.4,0,.14L34,144.1c-.8.21-1.64.46-2.54.73s-1.74.55-2.49.84L3.9,155l-1.14,5,34.8,7.91Z"/><path class="cls-1" d="M37.13,109.95a6.12,6.12,0,0,0,4.13,2.31,6,6,0,0,0,2.31-.22A6.56,6.56,0,0,0,45.66,111a5.94,5.94,0,0,0,1.59-1.86,5.72,5.72,0,0,0,.72-2.29,6.07,6.07,0,0,0-.19-2.31,6.16,6.16,0,0,0-1-2.06,5.79,5.79,0,0,0-1.82-1.57,6,6,0,0,0-2.31-.73,6.33,6.33,0,0,0-2.35.18,5.89,5.89,0,0,0-2.09,1,5.8,5.8,0,0,0-1.56,1.82,6,6,0,0,0-.76,2.34,6.14,6.14,0,0,0,1.28,4.44Z"/></g></g></svg>